<?xml version="1.0" encoding="UTF-8" standalone="no"?>
<svg
   xmlns:dc="http://purl.org/dc/elements/1.1/"
   xmlns:cc="http://creativecommons.org/ns#"
   xmlns:rdf="http://www.w3.org/1999/02/22-rdf-syntax-ns#"
   xmlns:svg="http://www.w3.org/2000/svg"
   xmlns="http://www.w3.org/2000/svg"
   xmlns:sodipodi="http://sodipodi.sourceforge.net/DTD/sodipodi-0.dtd"
   xmlns:inkscape="http://www.inkscape.org/namespaces/inkscape"
   version="1.1"
   width="588"
   height="532"
   id="svg402"
   sodipodi:docname="ActivityDiagram.svg"
   inkscape:version="0.92.5 (2060ec1f9f, 2020-04-08)"
   inkscape:export-filename="D:\Users\yannb\Documents\choco-miner\uml\ActivityDiagram.png"
   inkscape:export-xdpi="24"
   inkscape:export-ydpi="24">
  <metadata
     id="metadata406">
    <rdf:RDF>
      <cc:Work
         rdf:about="">
        <dc:format>image/svg+xml</dc:format>
        <dc:type
           rdf:resource="http://purl.org/dc/dcmitype/StillImage" />
      </cc:Work>
    </rdf:RDF>
  </metadata>
  <sodipodi:namedview
     pagecolor="#ffffff"
     bordercolor="#666666"
     borderopacity="1"
     objecttolerance="10"
     gridtolerance="10"
     guidetolerance="10"
     inkscape:pageopacity="0"
     inkscape:pageshadow="2"
     inkscape:window-width="1920"
     inkscape:window-height="1001"
     id="namedview404"
     showgrid="false"
     inkscape:zoom="1.7744361"
     inkscape:cx="194.02407"
     inkscape:cy="292.69292"
     inkscape:window-x="-9"
     inkscape:window-y="-9"
     inkscape:window-maximized="1"
     inkscape:current-layer="g400" />
  <defs
     id="defs2" />
  <g
     id="g400">
    <text
       fill="#eeeeee"
       stroke="none"
       font-family="Arial"
       font-size="24px"
       font-style="normal"
       font-weight="normal"
       text-decoration="none"
       x="200"
       y="30"
       id="text42">UNREGISTERED</text>
    <g
       transform="translate(-70,-54) scale(1,1)"
       id="g114">
      <rect
         fill="#ffffff"
         stroke="none"
         x="80"
         y="64"
         width="115.0908203125"
         height="21"
         id="rect112" />
    </g>
    <g
       transform="translate(-70,-54) scale(1,1)"
       id="g118">
      <path
         fill="none"
         stroke="#000000"
         d="M 80 64 L 195.0908203125 64 L 195.0908203125 85 L 80 85 L 80 64 Z Z"
         stroke-miterlimit="10"
         stroke-width="2"
         id="path116" />
    </g>
    <g
       transform="translate(-70,-54) scale(1,1)"
       id="g122">
      <path
         fill="none"
         stroke="#000000"
         d="M 80 576 L 80 64 L 195.0908203125 64 L 195.0908203125 576"
         stroke-miterlimit="10"
         stroke-width="2"
         id="path120" />
    </g>
    <g
       transform="translate(-70,-54) scale(1,1)"
       id="g130">
      <g
         id="g128">
        <path
           fill="none"
           stroke="none"
           id="path124" />
        <text
           fill="#000000"
           stroke="none"
           font-family="Arial"
           font-size="13px"
           font-style="normal"
           font-weight="normal"
           text-decoration="none"
           x="125.986328125"
           y="81"
           id="text126">Dev</text>
      </g>
    </g>
    <g
       transform="translate(-70,-54) scale(1,1)"
       id="g134">
      <path
         fill="#C0C0C0"
         stroke="none"
         d="M 135 128.5 C 135 123.2532944 139.2532944 119 144.5 119 C 149.7467056 119 154 123.2532944 154 128.5 C 154 133.7467056 149.7467056 138 144.5 138 C 139.2532944 138 135 133.7467056 135 128.5 Z"
         opacity="0.2"
         id="path132" />
    </g>
    <g
       transform="translate(-70,-54) scale(1,1)"
       id="g138">
      <path
         fill="#000000"
         stroke="none"
         d="M 128 121.5 C 128 116.2532944 132.2532944 112 137.5 112 C 142.7467056 112 147 116.2532944 147 121.5 C 147 126.7467056 142.7467056 131 137.5 131 C 132.2532944 131 128 126.7467056 128 121.5 Z"
         id="path136" />
    </g>
    <g
       transform="translate(-70,-54) scale(1,1)"
       id="g142">
      <rect
         fill="#ffffff"
         stroke="none"
         x="200"
         y="64"
         width="176"
         height="21"
         id="rect140" />
    </g>
    <g
       transform="translate(-70,-54) scale(1,1)"
       id="g146">
      <path
         fill="none"
         stroke="#000000"
         d="M 200 64 L 376 64 L 376 85 L 200 85 L 200 64 Z Z"
         stroke-miterlimit="10"
         stroke-width="2"
         id="path144" />
    </g>
    <g
       transform="translate(-70,-54) scale(1,1)"
       id="g150">
      <path
         fill="none"
         stroke="#000000"
         d="M 200 576 L 200 64 L 376 64 L 376 576"
         stroke-miterlimit="10"
         stroke-width="2"
         id="path148" />
    </g>
    <g
       transform="translate(-70,-54) scale(1,1)"
       id="g158">
      <g
         id="g156">
        <path
           fill="none"
           stroke="none"
           id="path152" />
        <text
           fill="#000000"
           stroke="none"
           font-family="Arial"
           font-size="13px"
           font-style="normal"
           font-weight="normal"
           text-decoration="none"
           x="241.030517578125"
           y="81"
           id="text154">Batterie de tests</text>
      </g>
    </g>
    <g
       transform="translate(-70,-54) scale(1,1)"
       id="g162">
      <rect
         fill="#ffffff"
         stroke="none"
         x="384"
         y="64"
         width="128"
         height="21"
         id="rect160" />
    </g>
    <g
       transform="translate(-70,-54) scale(1,1)"
       id="g166">
      <path
         fill="none"
         stroke="#000000"
         d="M 384 64 L 512 64 L 512 85 L 384 85 L 384 64 Z Z"
         stroke-miterlimit="10"
         stroke-width="2"
         id="path164" />
    </g>
    <g
       transform="translate(-70,-54) scale(1,1)"
       id="g170">
      <path
         fill="none"
         stroke="#000000"
         d="M 384 576 L 384 64 L 512 64 L 512 576"
         stroke-miterlimit="10"
         stroke-width="2"
         id="path168" />
    </g>
    <g
       transform="translate(-70,-54) scale(1,1)"
       id="g178">
      <g
         id="g176">
        <path
           fill="none"
           stroke="none"
           id="path172" />
        <text
           fill="#000000"
           stroke="none"
           font-family="Arial"
           font-size="13px"
           font-style="normal"
           font-weight="normal"
           text-decoration="none"
           x="412.957763671875"
           y="81"
           id="text174">Chocominer</text>
      </g>
    </g>
    <g
       transform="translate(-70,-54) scale(1,1)"
       id="g182">
      <rect
         fill="#ffffff"
         stroke="none"
         x="520"
         y="64"
         width="128"
         height="21"
         id="rect180" />
    </g>
    <g
       transform="translate(-70,-54) scale(1,1)"
       id="g186">
      <path
         fill="none"
         stroke="#000000"
         d="M 520 64 L 648 64 L 648 85 L 520 85 L 520 64 Z Z"
         stroke-miterlimit="10"
         stroke-width="2"
         id="path184" />
    </g>
    <g
       transform="translate(-70,-54) scale(1,1)"
       id="g190">
      <path
         fill="none"
         stroke="#000000"
         d="M 520 576 L 520 64 L 648 64 L 648 576"
         stroke-miterlimit="10"
         stroke-width="2"
         id="path188" />
    </g>
    <g
       transform="translate(-70,-54) scale(1,1)"
       id="g198">
      <g
         id="g196">
        <path
           fill="none"
           stroke="none"
           id="path192" />
        <text
           fill="#000000"
           stroke="none"
           font-family="Arial"
           font-size="13px"
           font-style="normal"
           font-weight="normal"
           text-decoration="none"
           x="565.944091796875"
           y="81"
           id="text194">SPMF</text>
      </g>
    </g>
    <g
       transform="translate(-70,-54) scale(1,1)"
       id="g202">
      <path
         fill="#C0C0C0"
         stroke="none"
         d="M 225 143 L 358.50439453125 143 Q 368.50439453125 143 368.50439453125 153 L 368.50439453125 173 Q 368.50439453125 183 358.50439453125 183 L 225 183 Q 215 183 215 173 L 215 153 Q 215 143 225 143 Z"
         opacity="0.2"
         id="path200" />
    </g>
    <g
       transform="translate(-70,-54) scale(1,1)"
       id="g206">
      <path
         fill="#ffffff"
         stroke="none"
         d="M 218 136 L 351.50439453125 136 Q 361.50439453125 136 361.50439453125 146 L 361.50439453125 166 Q 361.50439453125 176 351.50439453125 176 L 218 176 Q 208 176 208 166 L 208 146 Q 208 136 218 136 Z"
         id="path204" />
    </g>
    <g
       transform="translate(-70,-54) scale(1,1)"
       id="g210">
      <path
         fill="none"
         stroke="#000000"
         d="M 218 136 L 351.50439453125 136 Q 361.50439453125 136 361.50439453125 146 L 361.50439453125 166 Q 361.50439453125 176 351.50439453125 176 L 218 176 Q 208 176 208 166 L 208 146 Q 208 136 218 136 Z"
         stroke-miterlimit="10"
         id="path208" />
    </g>
    <g
       transform="translate(-75.635593,-52.309322)"
       id="g218">
      <g
         id="g216">
        <path
           id="path212"
           d=""
           inkscape:connector-curvature="0"
           style="fill:none;stroke:none" />
        <text
           font-size="13px"
           font-style="normal"
           font-weight="bold"
           text-decoration="none"
           x="217.19409"
           y="155.5"
           id="text214"
           style="font-style:normal;font-weight:bold;font-size:13px;font-family:Arial;text-decoration:none;text-decoration-line:none;fill:#000000;stroke:none">Veux tester programme</text>
      </g>
    </g>
    <g
       transform="translate(-70,-54) scale(1,1)"
       id="g222">
      <path
         fill="none"
         stroke="#000000"
         d="M 148 121 L 288 120 L 286 135"
         stroke-miterlimit="10"
         id="path220" />
    </g>
    <g
       transform="translate(-70,-54) scale(1,1)"
       id="g226">
      <path
         fill="none"
         stroke="#000000"
         d="M 283.1705454670771 124.37012760913275 L 286 135 L 291.51572836344104 125.48281866198128"
         stroke-miterlimit="10"
         id="path224" />
    </g>
    <g
       transform="translate(-70,-54) scale(1,1)"
       id="g230">
      <path
         fill="#C0C0C0"
         stroke="none"
         d="M 258 231 L 321 231 Q 324 231 324 234 L 324 233 Q 324 236 321 236 L 258 236 Q 255 236 255 233 L 255 234 Q 255 231 258 231 Z"
         opacity="0.2"
         id="path228" />
    </g>
    <g
       transform="translate(-70,-54) scale(1,1)"
       id="g234">
      <path
         fill="#000000"
         stroke="none"
         d="M 251 224 L 314 224 Q 317 224 317 227 L 317 227 Q 317 230 314 230 L 251 230 Q 248 230 248 227 L 248 227 Q 248 224 251 224 Z"
         id="path232" />
    </g>
    <g
       transform="translate(-70,-54) scale(1,1)"
       id="g238">
      <path
         fill="none"
         stroke="#000000"
         d="M 283 177 L 282 223"
         stroke-miterlimit="10"
         id="path236" />
    </g>
    <g
       transform="translate(-70,-54) scale(1,1)"
       id="g242">
      <path
         fill="none"
         stroke="#000000"
         d="M 278.0123521078249 212.74823604017186 L 282 223 L 286.42939894957703 212.9312153193404"
         stroke-miterlimit="10"
         id="path240" />
    </g>
    <g
       transform="translate(-70,-54) scale(1,1)"
       id="g246">
      <path
         fill="none"
         stroke="#000000"
         d="M 282 230 L 280 264 L 448 264 L 449 295"
         stroke-miterlimit="10"
         id="path244" />
    </g>
    <g
       transform="translate(-70,-54) scale(1,1)"
       id="g250">
      <path
         fill="none"
         stroke="#000000"
         d="M 444.4650129238797 284.9783288709207 L 449 295 L 452.8796715000754 284.70688827168857"
         stroke-miterlimit="10"
         id="path248" />
    </g>
    <g
       transform="translate(-70,-54) scale(1,1)"
       id="g254">
      <path
         fill="#C0C0C0"
         stroke="none"
         d="M 409 303 L 503.49169921875 303 Q 513.49169921875 303 513.49169921875 313 L 513.49169921875 333 Q 513.49169921875 343 503.49169921875 343 L 409 343 Q 399 343 399 333 L 399 313 Q 399 303 409 303 Z"
         opacity="0.2"
         id="path252" />
    </g>
    <g
       transform="translate(-70,-54) scale(1,1)"
       id="g258">
      <path
         fill="#ffffff"
         stroke="none"
         d="M 402 296 L 496.49169921875 296 Q 506.49169921875 296 506.49169921875 306 L 506.49169921875 326 Q 506.49169921875 336 496.49169921875 336 L 402 336 Q 392 336 392 326 L 392 306 Q 392 296 402 296 Z"
         id="path256" />
    </g>
    <g
       transform="translate(-70,-54) scale(1,1)"
       id="g262">
      <path
         fill="none"
         stroke="#000000"
         d="M 402 296 L 496.49169921875 296 Q 506.49169921875 296 506.49169921875 306 L 506.49169921875 326 Q 506.49169921875 336 496.49169921875 336 L 402 336 Q 392 336 392 326 L 392 306 Q 392 296 402 296 Z"
         stroke-miterlimit="10"
         id="path260" />
    </g>
    <g
       transform="translate(-73.944915,-54)"
       id="g270">
      <g
         id="g268">
        <path
           id="path264"
           d=""
           inkscape:connector-curvature="0"
           style="fill:none;stroke:none" />
        <text
           font-size="13px"
           font-style="normal"
           font-weight="bold"
           text-decoration="none"
           x="400.47046"
           y="315.5"
           id="text266"
           style="font-style:normal;font-weight:bold;font-size:13px;font-family:Arial;text-decoration:none;text-decoration-line:none;fill:#000000;stroke:none">récupère résultat</text>
      </g>
    </g>
    <g
       transform="translate(-70,-54) scale(1,1)"
       id="g278">
      <path
         fill="#ffffff"
         stroke="none"
         d="M 538 296 L 632.49169921875 296 Q 642.49169921875 296 642.49169921875 306 L 642.49169921875 326 Q 642.49169921875 336 632.49169921875 336 L 538 336 Q 528 336 528 326 L 528 306 Q 528 296 538 296 Z"
         id="path276" />
    </g>
    <g
       transform="translate(-70,-54) scale(1,1)"
       id="g282">
      <path
         fill="none"
         stroke="#000000"
         d="M 538 296 L 632.49169921875 296 Q 642.49169921875 296 642.49169921875 306 L 642.49169921875 326 Q 642.49169921875 336 632.49169921875 336 L 538 336 Q 528 336 528 326 L 528 306 Q 528 296 538 296 Z"
         stroke-miterlimit="10"
         id="path280" />
    </g>
    <g
       transform="translate(-74.508475,-54)"
       id="g290">
      <g
         id="g288">
        <path
           id="path284"
           d=""
           inkscape:connector-curvature="0"
           style="fill:none;stroke:none" />
        <text
           font-size="13px"
           font-style="normal"
           font-weight="bold"
           text-decoration="none"
           x="536.47046"
           y="315.5"
           id="text286"
           style="font-style:normal;font-weight:bold;font-size:13px;font-family:Arial;text-decoration:none;text-decoration-line:none;fill:#000000;stroke:none">récupère résultat</text>
      </g>
    </g>
    <g
       transform="translate(-70,-54) scale(1,1)"
       id="g294">
      <path
         d="M 286 230 L 304 248 L 584 248 L 585 295"
         stroke-miterlimit="10"
         id="path292"
         stroke="#000000"
         fill="none" />
    </g>
    <g
       transform="translate(-70,-54) scale(1,1)"
       id="g298">
      <path
         fill="none"
         stroke="#000000"
         d="M 580.5752565323953 284.9291685921226 L 585 295 L 588.9923870697424 284.7500807083493"
         stroke-miterlimit="10"
         id="path296" />
    </g>
    <g
       transform="translate(-70,-54) scale(1,1)"
       id="g302">
      <path
         fill="#C0C0C0"
         stroke="none"
         d="M 241 415 L 329.7216796875 415 Q 339.7216796875 415 339.7216796875 425 L 339.7216796875 445 Q 339.7216796875 455 329.7216796875 455 L 241 455 Q 231 455 231 445 L 231 425 Q 231 415 241 415 Z"
         opacity="0.2"
         id="path300" />
    </g>
    <g
       transform="translate(-70,-54) scale(1,1)"
       id="g306">
      <path
         fill="#ffffff"
         stroke="none"
         d="M 234 408 L 322.7216796875 408 Q 332.7216796875 408 332.7216796875 418 L 332.7216796875 438 Q 332.7216796875 448 322.7216796875 448 L 234 448 Q 224 448 224 438 L 224 418 Q 224 408 234 408 Z"
         id="path304" />
    </g>
    <g
       transform="translate(-70,-54) scale(1,1)"
       id="g310">
      <path
         fill="none"
         stroke="#000000"
         d="M 234 408 L 322.7216796875 408 Q 332.7216796875 408 332.7216796875 418 L 332.7216796875 438 Q 332.7216796875 448 322.7216796875 448 L 234 448 Q 224 448 224 438 L 224 418 Q 224 408 234 408 Z"
         stroke-miterlimit="10"
         id="path308" />
    </g>
    <g
       transform="translate(-72.254237,-54)"
       id="g318">
      <g
         id="g316">
        <path
           id="path312"
           d=""
           inkscape:connector-curvature="0"
           style="fill:none;stroke:none" />
        <text
           font-size="13px"
           font-style="normal"
           font-weight="bold"
           text-decoration="none"
           x="232.84814"
           y="427.5"
           id="text314"
           style="font-style:normal;font-weight:bold;font-size:13px;font-family:Arial;text-decoration:none;text-decoration-line:none;fill:#000000;stroke:none">Verifie similarité</text>
      </g>
    </g>
    <g
       transform="translate(-70,-54) scale(1,1)"
       id="g322">
      <path
         fill="#C0C0C0"
         stroke="none"
         d="M 258 383 L 321 383 Q 324 383 324 386 L 324 385 Q 324 388 321 388 L 258 388 Q 255 388 255 385 L 255 386 Q 255 383 258 383 Z"
         opacity="0.2"
         id="path320" />
    </g>
    <g
       transform="translate(-70,-54) scale(1,1)"
       id="g326">
      <path
         fill="#000000"
         stroke="none"
         d="M 251 376 L 314 376 Q 317 376 317 379 L 317 379 Q 317 382 314 382 L 251 382 Q 248 382 248 379 L 248 379 Q 248 376 251 376 Z"
         id="path324" />
    </g>
    <g
       transform="translate(-70,-54) scale(1,1)"
       id="g330">
      <path
         fill="none"
         stroke="#000000"
         d="M 391 326 L 280 344 L 282 375"
         stroke-miterlimit="10"
         id="path328" />
    </g>
    <g
       transform="translate(-70,-54) scale(1,1)"
       id="g334">
      <path
         fill="none"
         stroke="#000000"
         d="M 277.14491953483304 365.1294278951646 L 282 375 L 285.54648814939395 364.5873912103542"
         stroke-miterlimit="10"
         id="path332" />
    </g>
    <g
       transform="translate(-70,-54) scale(1,1)"
       id="g338">
      <path
         fill="none"
         stroke="#000000"
         d="M 570 337 L 560 352 L 320 352 L 286 375"
         stroke-miterlimit="10"
         id="path336" />
    </g>
    <g
       transform="translate(-70,-54) scale(1,1)"
       id="g342">
      <path
         fill="none"
         stroke="#000000"
         d="M 292.0589427853697 365.81908434176546 L 286 375 L 296.7762072497956 372.7924318109168"
         stroke-miterlimit="10"
         id="path340" />
    </g>
    <g
       transform="translate(-70,-54) scale(1,1)"
       id="g346">
      <path
         fill="none"
         stroke="#000000"
         d="M 282 382 L 280 407"
         stroke-miterlimit="10"
         id="path344" />
    </g>
    <g
       transform="translate(-70,-54) scale(1,1)"
       id="g350">
      <path
         fill="none"
         stroke="#000000"
         d="M 276.61431315104414 396.534001501968 L 280 407 L 285.00653637997584 397.20537936028256"
         stroke-miterlimit="10"
         id="path348" />
    </g>
    <g
       transform="translate(-70,-54) scale(1,1)"
       id="g354">
      <path
         fill="#C0C0C0"
         stroke="none"
         d="M 135 563.5 C 135 556.59644 140.59644 551 147.5 551 C 154.40356 551 160 556.59644 160 563.5 C 160 570.40356 154.40356 576 147.5 576 C 140.59644 576 135 570.40356 135 563.5 Z"
         opacity="0.2"
         id="path352" />
    </g>
    <g
       transform="translate(-70,-54) scale(1,1)"
       id="g358">
      <path
         fill="none"
         stroke="#000000"
         d="M 128 556.5 C 128 549.59644 133.59644 544 140.5 544 C 147.40356 544 153 549.59644 153 556.5 C 153 563.40356 147.40356 569 140.5 569 C 133.59644 569 128 563.40356 128 556.5 Z"
         stroke-miterlimit="10"
         id="path356" />
    </g>
    <g
       transform="translate(-70,-54) scale(1,1)"
       id="g362">
      <path
         fill="#000000"
         stroke="none"
         d="M 133 556.5 C 133 552.357864 136.357864 549 140.5 549 C 144.642136 549 148 552.357864 148 556.5 C 148 560.642136 144.642136 564 140.5 564 C 136.357864 564 133 560.642136 133 556.5 Z"
         id="path360" />
    </g>
    <g
       transform="translate(-70,-54) scale(1,1)"
       id="g366">
      <path
         fill="#C0C0C0"
         stroke="none"
         d="M 105 495 L 185.0126953125 495 Q 195.0126953125 495 195.0126953125 505 L 195.0126953125 525 Q 195.0126953125 535 185.0126953125 535 L 105 535 Q 95 535 95 525 L 95 505 Q 95 495 105 495 Z"
         opacity="0.2"
         id="path364" />
    </g>
    <g
       transform="translate(-70,-54) scale(1,1)"
       id="g370">
      <path
         fill="#ffffff"
         stroke="none"
         d="M 98 488 L 178.0126953125 488 Q 188.0126953125 488 188.0126953125 498 L 188.0126953125 518 Q 188.0126953125 528 178.0126953125 528 L 98 528 Q 88 528 88 518 L 88 498 Q 88 488 98 488 Z"
         id="path368" />
    </g>
    <g
       transform="translate(-70,-54) scale(1,1)"
       id="g374">
      <path
         fill="none"
         stroke="#000000"
         d="M 98 488 L 178.0126953125 488 Q 188.0126953125 488 188.0126953125 498 L 188.0126953125 518 Q 188.0126953125 528 178.0126953125 528 L 98 528 Q 88 528 88 518 L 88 498 Q 88 488 98 488 Z"
         stroke-miterlimit="10"
         id="path372" />
    </g>
    <g
       transform="translate(-74.508475,-54)"
       id="g382">
      <g
         id="g380">
        <path
           id="path376"
           d=""
           inkscape:connector-curvature="0"
           style="fill:none;stroke:none" />
        <text
           font-size="13px"
           font-style="normal"
           font-weight="bold"
           text-decoration="none"
           x="96.460938"
           y="507.5"
           id="text378"
           style="font-style:normal;font-weight:bold;font-size:13px;font-family:Arial;text-decoration:none;text-decoration-line:none;fill:#000000;stroke:none">Notifie résultat</text>
      </g>
    </g>
    <g
       transform="translate(-70,-54) scale(1,1)"
       id="g386">
      <path
         fill="none"
         stroke="#000000"
         d="M 279 449 L 280 464 L 136 464 L 137 487"
         stroke-miterlimit="10"
         id="path384" />
    </g>
    <g
       transform="translate(-70,-54) scale(1,1)"
       id="g390">
      <path
         fill="none"
         stroke="#000000"
         d="M 132.35301697510945 477.02976686499363 L 137 487 L 140.76410625081493 476.6640673312673"
         stroke-miterlimit="10"
         id="path388" />
    </g>
    <g
       transform="translate(-70,-54) scale(1,1)"
       id="g394">
      <path
         fill="none"
         stroke="#000000"
         d="M 139 529 L 139 543"
         stroke-miterlimit="10"
         id="path392" />
    </g>
    <g
       transform="translate(-70,-54) scale(1,1)"
       id="g398">
      <path
         fill="none"
         stroke="#000000"
         d="M 134.790482243984 532.8373251423759 L 139 543 L 143.209517756016 532.8373251423759"
         stroke-miterlimit="10"
         id="path396" />
    </g>
  </g>
</svg>
